PathFileType	3	(X/Y/Z)	RCH0000002 BBF 11.c3d
DataRate	CameraRate	NumFrames	NumMarkers	Units	OrigDataRate	OrigDataStartFrame	OrigNumFrames
100.0	100.0	8	23	mm	100.0	233	502
Frame#	Time	T2			T10			MAN			LASI			RASI			LPSI			RPSI			LPAT			LKNE			LANK			LMED			LTOE			RPAT			RKNE			RANK			RMED			RHEE			RTOE			LHEE			RTHI			LTHI			RTIB			LTIB			
		X1	Y1	Z1	X2	Y2	Z2	X3	Y3	Z3	X4	Y4	Z4	X5	Y5	Z5	X6	Y6	Z6	X7	Y7	Z7	X8	Y8	Z8	X9	Y9	Z9	X10	Y10	Z10	X11	Y11	Z11	X12	Y12	Z12	X13	Y13	Z13	X14	Y14	Z14	X15	Y15	Z15	X16	Y16	Z16	X17	Y17	Z17	X18	Y18	Z18	X19	Y19	Z19	X20	Y20	Z20	X21	Y21	Z21	X22	Y22	Z22	X23	Y23	Z23	

233	2.320	-408.58802	-57.92649	969.97390	-393.51120	-52.25658	779.67592	-272.63252	-29.84044	947.42518	-322.25996	43.71010	631.89761	-272.28208	-124.22551	647.92520	-413.96229	-34.56132	685.03510	-395.52323	-102.22988	692.07775	-337.52821	-2.32542	343.23018	-396.62067	49.78683	318.33648	-571.50583	55.83278	110.21190	-567.42421	-12.19905	127.89246	-542.69297	12.54131	77.89760	-222.57364	-46.03987	381.64684	-242.23662	-111.63857	341.71785	-298.31073	-163.28217	83.41867	-333.17622	-102.14583	90.24593	-351.36557	-149.02313	115.85684	-270.89661	-114.12956	71.71908	-588.48297	23.25088	161.68400	-231.90824	-182.34092	452.20091	-389.93502	118.01598	444.17037	-240.33624	-192.38853	240.28824	-462.70626	115.80802	226.91643	
234	2.330	-398.71785	-56.81021	971.35600	-381.88760	-50.91832	781.56939	-262.37545	-29.53738	950.01031	-309.84920	42.30148	632.76631	-261.44500	-125.76373	651.08939	-402.08045	-34.05243	687.57602	-384.08934	-101.83788	695.77858	-320.90357	-3.75905	345.08471	-379.80917	48.69106	319.63747	-555.73060	55.82919	113.03363	-551.19677	-12.38362	129.61387	-526.93813	13.14025	80.01633	-218.81421	-51.30145	381.81641	-240.10178	-116.63180	342.67451	-298.33639	-164.92522	83.53436	-332.92039	-103.74619	91.47046	-351.08002	-150.96036	116.69909	-271.01380	-115.62626	71.91482	-572.23882	22.54490	163.98170	-226.66269	-186.61872	453.26614	-374.83107	116.65015	445.69499	-239.72735	-196.41405	239.80015	-446.41136	115.01196	229.50478	
235	2.340	-388.81144	-55.45619	973.31789	-370.57329	-49.70292	784.03992	-252.19191	-29.00467	952.96920	-297.60502	40.81147	634.27268	-250.93275	-127.45645	654.64686	-390.40380	-33.61468	690.62899	-372.93613	-101.52014	699.81771	-304.02241	-5.05233	347.85823	-362.81845	47.60274	321.73222	-539.09377	55.27277	115.95633	-533.61109	-13.10239	131.27357	-509.72314	13.58915	82.41154	-215.69574	-56.72217	382.44650	-238.59464	-121.80020	344.13470	-298.22490	-166.33329	83.93375	-332.45619	-105.12007	92.88907	-350.73888	-152.64962	117.70465	-270.93940	-116.91961	72.28865	-555.14795	20.93708	166.12631	-221.99514	-191.06441	454.73868	-359.81378	115.30023	447.98055	-239.63258	-200.53235	239.70927	-430.19174	113.99306	232.82670	
236	2.350	-378.86020	-53.94652	975.77184	-359.56837	-48.66716	786.97584	-242.07850	-28.27596	956.20547	-285.53436	39.27764	636.34701	-240.72017	-129.26131	658.46404	-378.93845	-33.25607	694.06078	-362.05653	-101.28367	704.04297	-286.86397	-6.09192	351.46234	-345.64250	46.58855	324.53965	-521.61664	54.18075	118.89526	-514.71253	-14.32210	132.83936	-491.10863	13.86980	85.01544	-213.13153	-62.08478	383.41704	-237.58312	-126.94331	345.96239	-297.97187	-167.43539	84.56340	-331.76296	-106.18282	94.43143	-350.32008	-153.98249	118.82331	-270.65254	-117.94839	72.78873	-537.21501	18.49104	168.07026	-217.78926	-195.50201	456.46819	-344.89771	114.03423	450.93021	-239.96577	-204.57338	239.94655	-414.02735	112.79595	236.75587	
237	2.360	-368.85548	-52.36756	978.60888	-348.86255	-47.85175	790.24532	-232.02745	-27.38931	959.60819	-273.63999	37.73738	638.88743	-230.77692	-131.13250	662.40171	-367.68867	-32.97569	697.71921	-351.43976	-101.12652	708.29978	-269.40838	-6.78951	355.77568	-328.25735	45.71105	327.94340	-503.29566	52.62431	121.75183	-494.57046	-15.95983	134.28389	-471.17288	13.98352	87.74737	-211.00631	-67.21197	384.61006	-236.91916	-131.89097	348.02287	-297.59410	-168.20355	85.37525	-330.85182	-106.89531	96.04334	-349.81759	-154.90140	120.02119	-270.16299	-118.69078	73.37250	-518.43549	15.35288	169.76695	-213.91973	-199.77985	458.31303	-330.07578	112.91360	454.41096	-240.62397	-208.39990	240.44055	-397.83138	111.48163	241.11883	
238	2.370	-358.78865	-50.80303	981.70528	-338.43758	-47.27866	793.70455	-222.02682	-26.38449	963.05684	-261.92092	36.22478	641.76646	-221.07089	-133.02467	666.32339	-356.65738	-32.76435	701.44213	-341.07334	-101.03835	712.43926	-251.64323	-7.09415	360.65509	-310.62430	45.02234	331.80266	-484.10470	50.72678	124.42238	-473.27523	-17.88724	135.58567	-450.00492	13.95481	90.52041	-209.18416	-71.97707	385.91595	-236.44796	-136.51422	350.19173	-297.11233	-168.64943	86.32440	-329.75021	-107.26287	97.68441	-349.22799	-155.40076	121.27554	-269.49460	-119.15956	74.00524	-498.80182	11.74212	171.17442	-210.26089	-203.78023	460.15022	-315.31913	111.98732	458.26491	-241.48605	-211.91452	241.11991	-381.45804	110.12629	245.71249	
239	2.380	-348.65152	-49.32745	984.92972	-328.26961	-46.95022	797.20614	-212.06112	-25.30021	966.42691	-250.37231	34.76793	644.83953	-211.57072	-134.89669	670.10270	-345.84580	-32.60604	705.06676	-330.94438	-101.00180	716.32516	-233.56911	-6.99894	365.94724	-292.69601	44.55904	335.96485	-464.00123	48.65533	126.80757	-450.93239	-19.94041	136.72786	-427.69744	13.83294	93.24795	-207.51822	-76.30796	387.23752	-236.01832	-140.73043	352.36095	-296.54110	-168.81695	87.36725	-328.49043	-107.32864	99.32478	-348.54339	-155.52115	122.56968	-268.67389	-119.39452	74.65813	-478.30936	7.93242	172.25734	-206.69594	-207.42499	461.88137	-300.57998	111.28759	462.32254	-242.41858	-215.06221	241.91567	-364.71948	108.81858	250.32550	
240	2.390	-338.43683	-48.00050	988.15046	-318.33124	-46.85010	800.60728	-202.11221	-24.17158	969.59587	-238.98500	33.38687	647.95448	-202.24736	-136.71473	673.62932	-335.25241	-32.48009	708.43856	-321.03975	-100.99467	719.83937	-215.20397	-6.54114	371.49920	-274.42519	44.33904	340.27806	-442.93557	46.60647	128.82083	-427.65478	-21.93436	137.69501	-404.34060	13.69075	95.84920	-205.86134	-80.18384	388.49216	-235.49240	-144.50247	354.44220	-295.88558	-168.77224	88.46079	-327.10277	-107.16279	100.94173	-347.75033	-155.33789	123.88919	-267.72407	-119.45324	75.30645	-456.96142	4.22412	172.98692	-203.12500	-210.67648	463.43465	-285.79785	110.82725	466.41639	-243.28670	-217.82778	242.76365	-347.41019	107.65437	254.76008	
